<svg xmlns="http://www.w3.org/2000/svg" width="32" height="32" fill="none" viewBox="0 0 32 32">
  <g fill="#181408" clip-path="url(#a)">
    <path d="m17.964 7.169.262.062v.042h-.895V7.23l.262-.062v-2.7l-.262-.063v-.041h.895v.041l-.262.063v2.7Zm-1.2 0 .262.062v.042h-.895V7.23l.262-.062v-2.7l-.262-.063v-.041h.895v.041l-.262.063v2.7Zm-1.981-1.251-.703-1.45-.262-.063v-.041h.938v.041l-.261.063.501 1.038.524-.997-.284-.104v-.041h.655v.041l-.284.104-.567 1.085.764 1.575.261.062v.042h-.938V7.23l.262-.062L14.822 6l-.59 1.126.284.104v.042h-.654V7.23l.284-.104.636-1.21Zm3.255 21.678v.04h-.916v-.04l.262-.061-.698-2.136-.611 2.095.283.102v.04h-.654v-.04l.283-.102.808-2.767h.065l.916 2.808.262.06ZM15.05 24.89l-.262-.061v-.04h.894v.04l-.261.061v2.645l.261.06v.041h-.894v-.04l.262-.061V24.89Zm-9.132-9.304-1.45.702-.063.262h-.041v-.938h.041l.063.262 1.038-.502-.997-.524-.104.284h-.041v-.654h.041l.104.283 1.085.568 1.575-.764.062-.262h.042v.938H7.23l-.062-.262L6 15.547l1.126.589.104-.284h.042v.655H7.23l-.104-.284-1.21-.637Zm1.251 1.291.062-.262h.042v.895H7.23l-.062-.262h-2.7l-.063.262h-.041v-.895h.041l.063.262h2.7Zm17.662.458-.062.262h-.042v-.895h.042l.062.262h2.701l.063-.262h.041v.895h-.041l-.063-.262h-2.7Zm0-1.2-.062.262h-.042v-.894h.042l.062.261h2.701l.063-.261h.041v.894h-.041l-.063-.262h-2.7Zm0-1.199-.062.262h-.042v-.895h.042l.062.262h2.701l.063-.262h.041v.895h-.041l-.063-.262h-2.7ZM16.97 16a.97.97 0 1 1-1.94 0 .97.97 0 0 1 1.94 0Z"/>
    <path fill-rule="evenodd" d="M32 16c0 8.837-7.163 16-16 16S0 24.837 0 16 7.163 0 16 0s16 7.163 16 16ZM16 31.515c8.569 0 15.515-6.946 15.515-15.515S24.57.485 16 .485.485 7.43.485 16 7.43 31.515 16 31.515Z" clip-rule="evenodd"/>
    <path fill-rule="evenodd" d="M14.82 29.525c.389.034.782.05 1.18.05v.728c-.423 0-.842-.018-1.256-.054l.076-.724Zm2.6-.022c-.39.04-.782.064-1.18.07v.728c.423-.007.842-.032 1.255-.075l-.076-.723Zm.314.696-.076-.724a13.16 13.16 0 0 0 1.165-.193l.151.711c-.407.087-.82.155-1.24.206Zm1.475-.257-.151-.712a13.48 13.48 0 0 0 1.138-.315l.225.692c-.397.128-.8.24-1.212.335Zm1.44-.412-.225-.692c.374-.128.74-.273 1.1-.433l.295.665c-.381.17-.772.324-1.17.46Zm1.389-.56-.296-.665c.358-.167.707-.35 1.047-.546l.364.63c-.362.21-.734.403-1.115.581Zm1.322-.703-.364-.63c.338-.204.666-.422.984-.653l.428.588c-.339.247-.688.478-1.048.695Zm1.24-.838-.427-.588c.315-.238.619-.489.911-.752l.487.54c-.312.28-.635.548-.97.8Zm1.148-.962-.487-.54c.288-.27.564-.55.828-.843l.54.487c-.28.311-.574.61-.881.896Zm1.04-1.076-.54-.487c.258-.297.504-.605.736-.924l.588.428c-.247.339-.508.667-.783.983Zm.924-1.179-.588-.427c.225-.322.437-.654.635-.996l.63.364a14.3 14.3 0 0 1-.677 1.06Zm.796-1.268-.63-.364c.19-.343.366-.696.527-1.057l.665.296c-.172.384-.36.76-.563 1.125Zm.658-1.345-.665-.296c.153-.361.292-.73.414-1.107l.692.225c-.13.4-.278.794-.441 1.178Zm.513-1.407-.692-.225c.114-.375.213-.756.295-1.144l.711.151c-.087.413-.192.82-.314 1.218Zm.362-1.453-.712-.152c.075-.383.133-.773.174-1.168l.723.076c-.044.42-.106.835-.185 1.244Zm.208-1.483-.724-.076c.034-.389.05-.782.05-1.18h.728c0 .423-.018.842-.054 1.256Zm.052-1.496h-.727a13.54 13.54 0 0 0-.072-1.18l.724-.075c.043.413.068.832.075 1.255Zm-.102-1.494-.724.076a13.525 13.525 0 0 0-.193-1.165l.711-.151c.087.407.155.82.206 1.24Zm-.257-1.475-.712.151a13.493 13.493 0 0 0-.315-1.138l.692-.225c.128.397.24.8.335 1.212Zm-.412-1.44-.692.225c-.128-.374-.273-.74-.433-1.1l.665-.295c.17.381.324.772.46 1.17Zm-.56-1.389-.665.296c-.167-.358-.35-.707-.546-1.047l.63-.364c.21.362.403.734.58 1.115Zm-.703-1.322-.63.364a13.621 13.621 0 0 0-.653-.984l.588-.428c.247.339.478.688.695 1.048Zm-.838-1.24-.588.427a13.641 13.641 0 0 0-.752-.911l.54-.487c.28.312.548.635.8.97Zm-.962-1.148-.54.487c-.215-.23-.436-.451-.666-.665l.487-.54c.248.23.488.47.719.718Zm-.896-.881-.487.54a13.637 13.637 0 0 0-.91-.752l.427-.588c.335.252.659.52.97.8Zm-1.163-.943-.428.588c-.318-.231-.646-.45-.984-.653l.364-.63c.36.217.71.449 1.048.695Zm-1.255-.817-.364.63c-.34-.197-.69-.379-1.047-.546l.296-.665c.38.178.753.372 1.115.581Zm-1.334-.68-.296.664c-.358-.16-.725-.305-1.099-.434l.225-.691c.398.136.789.29 1.17.46Zm-1.398-.538-.225.692a13.478 13.478 0 0 0-1.138-.315l.151-.712c.411.095.815.207 1.212.335Zm-1.447-.386-.15.711c-.384-.08-.772-.146-1.166-.194l.076-.723c.42.05.833.12 1.24.206Zm-1.479-.233-.076.724c-.388-.04-.781-.065-1.179-.072V1.7c.423.007.842.032 1.255.075ZM16 1.697v.727c-.398 0-.791.017-1.18.05l-.076-.723A14.49 14.49 0 0 1 16 1.697Zm-1.495.077.076.724c-.395.04-.785.098-1.168.173l-.152-.712c.409-.08.824-.141 1.244-.185Zm-1.48.233.152.711c-.388.082-.77.18-1.144.295l-.225-.692c.399-.122.805-.227 1.218-.314Zm-1.446.386.225.692c-.377.122-.746.26-1.107.414l-.296-.665c.385-.163.777-.31 1.178-.44Zm-1.398.537.296.665c-.361.16-.714.337-1.057.528l-.364-.63c.366-.204.74-.391 1.125-.563Zm-1.334.681.364.63c-.342.198-.674.41-.996.635l-.427-.588c.342-.24.696-.467 1.06-.677Zm-1.255.817.428.588a13.67 13.67 0 0 0-.924.736l-.487-.54c.316-.276.644-.537.983-.784ZM6.43 5.37l.487.54c-.293.264-.574.54-.842.828l-.54-.487c.285-.307.584-.6.895-.881ZM5.371 6.429l.54.487c-.263.292-.514.596-.752.91L4.571 7.4c.252-.335.52-.658.8-.97Zm-.943 1.163.588.428c-.231.318-.45.646-.653.984l-.63-.364c.217-.36.449-.71.695-1.048ZM3.61 8.847l.63.364c-.197.34-.38.69-.546 1.047l-.665-.296c.178-.38.372-.753.581-1.115Zm-.68 1.334.664.296c-.16.358-.305.725-.434 1.099l-.691-.225c.136-.398.29-.789.46-1.17Zm-.538 1.398.692.225c-.12.372-.226.752-.315 1.138l-.712-.151c.095-.411.207-.815.335-1.212Zm-.386 1.447.711.15c-.08.383-.146.772-.193 1.166l-.724-.076c.05-.42.12-.833.206-1.24Zm-.233 1.479.724.076c-.04.388-.065.781-.072 1.179H1.7c.007-.423.032-.842.075-1.255ZM1.697 16h.727c0 .398.017.791.05 1.18l-.723.076A14.474 14.474 0 0 1 1.697 16Zm.077 1.495.724-.076c.04.395.098.785.173 1.168l-.712.152a14.17 14.17 0 0 1-.185-1.244Zm.233 1.48.711-.152c.082.388.18.77.295 1.144l-.692.225a14.184 14.184 0 0 1-.314-1.218Zm.386 1.446.692-.225c.122.377.26.746.414 1.107l-.665.296c-.163-.385-.31-.777-.44-1.178Zm.537 1.398.665-.296c.16.361.337.713.528 1.057l-.63.364a14.25 14.25 0 0 1-.563-1.125Zm.681 1.334.63-.364c.198.341.41.674.635.996l-.588.427a14.21 14.21 0 0 1-.677-1.06Zm.817 1.255.588-.428c.232.319.478.627.736.924l-.54.487a14.37 14.37 0 0 1-.784-.983Zm.943 1.163.54-.487c.317.352.653.688 1.005 1.005l-.487.54a14.387 14.387 0 0 1-1.058-1.058Zm1.238 1.218.487-.54c.297.257.605.503.924.735l-.428.588a14.537 14.537 0 0 1-.983-.783Zm1.179.923.427-.588c.322.225.654.437.996.635l-.364.63a14.3 14.3 0 0 1-1.06-.677Zm1.268.796.364-.63c.344.19.696.366 1.057.527l-.296.665a14.57 14.57 0 0 1-1.125-.563Zm1.345.658.296-.665c.361.153.73.292 1.107.414l-.225.692c-.4-.13-.793-.278-1.178-.441Zm1.407.513.225-.692c.375.114.756.213 1.144.295l-.151.711a14.184 14.184 0 0 1-1.218-.314Zm1.453.362.152-.712c.383.075.773.133 1.168.174l-.076.723c-.42-.044-.835-.106-1.244-.185Zm2.739.505c8.033 0 14.546-6.513 14.546-14.546S24.032 1.455 16 1.455 1.455 7.967 1.455 16c0 8.033 6.512 14.546 14.545 14.546Zm11.669-8.09A13.273 13.273 0 0 0 29.333 16h-1.091a.12.12 0 0 1-.12-.121.12.12 0 0 1 .12-.121h1.09a13.267 13.267 0 0 0-1.782-6.423l-.878.507a.121.121 0 0 1-.122-.21l.877-.506a13.402 13.402 0 0 0-4.565-4.56l-.464.802a.121.121 0 0 1-.21-.12l.464-.805a13.266 13.266 0 0 0-6.41-1.774v.85a.121.121 0 0 1-.242 0v-.852a13.27 13.27 0 0 0-6.46 1.667l.401.696a.12.12 0 0 1-.21.121l-.402-.697a13.4 13.4 0 0 0-4.754 4.669l.695.401a.121.121 0 0 1-.121.21l-.697-.402a13.266 13.266 0 0 0-1.783 6.426h.847a.121.121 0 0 1 0 .242h-.85c0 2.343.605 4.546 1.667 6.46l.8-.463a.121.121 0 0 1 .122.21l-.802.463a13.399 13.399 0 0 0 4.864 4.87l.509-.881a.121.121 0 0 1 .21.121l-.508.88A13.273 13.273 0 0 0 16 29.333V28.24a.121.121 0 0 1 .242 0v1.091a13.266 13.266 0 0 0 6.422-1.78l-.569-.985a.121.121 0 0 1 .21-.12l.568.982a13.4 13.4 0 0 0 4.676-4.761l-.984-.568a.121.121 0 0 1 .121-.21l.983.567Z" clip-rule="evenodd"/>
    <path d="M14.113 14.152a5.816 5.816 0 0 0-1.376-.815l-5.329-2.234 4.709 3.35c.436.31.914.559 1.418.739l2.204.785.253.14.024-.041.926.33-.77-.613.024-.042-.253-.141-1.83-1.458Z"/>
    <path d="M19.684 14.115c.31-.174.603-.377.875-.604l5.942-4.957-6.602 4.035a5.818 5.818 0 0 0-.853.636l-2.073 1.861-1.078.773.085.12-.654.586.766-.43.085.118 1.078-.773 2.429-1.365Z"/>
  </g>
  <defs>
    <clipPath id="a">
      <path fill="#fff" d="M0 0h32v32H0z"/>
    </clipPath>
  </defs>
</svg>
