<svg width="325" height="128" viewBox="0 0 325 128" fill="none" xmlns="http://www.w3.org/2000/svg">
<g clip-path="url(#clip0_102_2)">
<g opacity="0.5">
<path d="M41.0595 45.25C45.4442 56.2343 57.9774 61.5417 69.0314 57.0953C82.8673 51.53 89.6241 35.896 84.1364 22.1478C77.2764 4.9621 57.7161 -3.32145 40.4214 3.63562C18.8211 12.3245 8.25511 36.771 16.8231 58.2352C27.5306 85.0595 63.1229 93.7135 90.1313 82.8904C133.02 65.7038 164.41 15.9344 221.582 -6.97617C255.735 -20.6622 298.326 -26.2007 334.176 -27.84" stroke="#FCFDF9" stroke-width="4" stroke-linecap="round" stroke-linejoin="round"/>
<path d="M120.181 32.2641C125.199 30.2461 127.706 24.7174 125.785 19.9054C123.384 13.8903 116.362 11.0619 110.09 13.5845C102.256 16.7351 98.3367 25.3802 101.335 32.8928C105.082 42.2815 117.889 45.1702 127.684 41.2454C143.237 35.0129 167.237 3.29472 195.397 -7.99" stroke="#FCFDF9" stroke-width="4" stroke-linecap="round" stroke-linejoin="round"/>
<path d="M165.486 103.462C170.482 101.468 176.154 103.896 178.163 108.891C180.675 115.135 177.651 122.21 171.405 124.703C163.604 127.817 154.736 124.02 151.599 116.222C145.584 101.212 157.227 47.4511 229.101 18.6493C300.975 -10.1526 352.06 4.97625 352.06 4.97625C352.06 4.97625 302.447 10.2661 281.58 18.6279C260.714 26.9898 246.956 40.3019 244.699 43.0656M355.245 -10.6998C332.137 -13.3415 273.554 -13.6698 224.093 6.15087C162.266 30.9266 148.695 80.9969 95.5626 102.289C53.0566 119.322 16.4466 99.7746 3.45483 87.8718" stroke="#FCFDF9" stroke-width="4" stroke-linecap="round" stroke-linejoin="round"/>
</g>
</g>
<defs>
<clipPath id="clip0_102_2">
<rect width="325" height="128" fill="white"/>
</clipPath>
</defs>
</svg>
