<svg width="475" height="141" viewBox="0 0 475 141" fill="none" xmlns="http://www.w3.org/2000/svg">
<g clip-path="url(#clip0_102_11)">
<path opacity="0.5" d="M-107.919 39.7384C-90.3865 33.4152 -41.3975 20.5259 14.2995 19.5537C202.277 16.2726 228.129 140.792 365.979 138.386C438.385 137.122 472.566 100.423 472.566 100.423M-208.839 83.1568C-189.333 56.8965 -117.46 3.80232 13.9845 1.50794C213.101 -1.96766 237.464 117.023 365.567 114.787C447.72 113.353 448.543 0.865498 363.605 2.3481C314.87 3.19877 309.143 74.1153 364.84 73.1431C384.334 72.8029 386.756 51.9322 386.756 51.9322M276.56 42.7472C269.598 42.8687 266.474 23.4834 283.183 23.1917C313.817 22.657 310.366 64.3741 283.91 64.8359C262.745 65.2053 179.998 16.6615 179.998 16.6615C161.322 6.76349 101.972 -13.0324 13.9845 -13.0324" stroke="#F4F2E2" stroke-width="4" stroke-linecap="round"/>
</g>
<defs>
<clipPath id="clip0_102_11">
<rect width="475" height="141" fill="white"/>
</clipPath>
</defs>
</svg>
