<svg width="452" height="228" viewBox="0 0 452 228" fill="none" xmlns="http://www.w3.org/2000/svg">
<g clip-path="url(#clip0_102_14)">
<path opacity="0.5" d="M389.014 -34.6981C343.663 -0.927746 294.544 73.6139 258.019 86.5184C221.493 99.4229 210.095 73.8697 205.14 59.8443C199.565 44.0657 202.215 13.5493 228.907 4.1191C255.599 -5.3111 268.534 13.7831 271.665 24.5089C277.24 40.2875 268.725 58.6774 247.489 56.7144M500.883 -70.2773C316.498 -5.13461 348.905 131.317 180.324 190.876C101.302 218.794 28.8005 181.305 9.59925 126.956C-9.60197 72.6079 13.4823 25.0121 71.0805 4.6628C128.679 -15.6866 158.046 27.1823 164.859 46.4672C171.673 65.7521 173.09 106.664 133.755 120.561C94.4192 134.458 83.4552 106.779 77.2613 89.2474M446.439 -17.5183C430.839 -0.174755 390.756 31.7344 403.144 66.7979C414.072 97.7296 461.681 89.007 448.801 50.6674C444.064 36.5668 433.827 36.2376 433.827 36.2376M397.25 100.432C392.672 96.7913 382.524 86.704 378.56 75.4836C374.595 64.2633 374.571 49.2848 375.054 43.198C354.594 85.9225 288.739 180.181 188.996 215.42C111.73 242.718 28.6918 208.951 2.35767 184.731" stroke="#FCFDF9" stroke-width="4" stroke-linecap="round"/>
</g>
<defs>
<clipPath id="clip0_102_14">
<rect width="452" height="228" fill="white"/>
</clipPath>
</defs>
</svg>
